<?xml version="1.0" encoding="UTF-8"?>
<svg width="29px" height="30px" viewBox="0 0 29 30" version="1.1" xmlns="http://www.w3.org/2000/svg" xmlns:xlink="http://www.w3.org/1999/xlink">
    <!-- Generator: Sketch 64 (93537) - https://sketch.com -->
    <title>tick--white</title>
    <desc>Created with Sketch.</desc>
    <g id="Page-1" stroke="none" stroke-width="1" fill="none" fill-rule="evenodd">
        <g id="Results-Copy-7" transform="translate(-296.000000, -85.000000)">
            <g id="tick--white" transform="translate(296.000000, 85.000000)">
                <path d="M15.4867419,0.36713495 L17.9136039,2.13061631 C18.2418385,2.3689246 18.6373458,2.49761108 19.0432243,2.49761108 L22.042745,2.49761108 C22.8752444,2.49761108 23.6132818,3.03366455 23.8705998,3.82596953 L24.797281,6.67894032 C24.9225764,7.06499975 25.1672808,7.40143499 25.4955154,7.64030401 L27.9220971,9.403505 C28.5956648,9.89301827 28.8773692,10.7607408 28.6200511,11.5527654 L27.69337,14.4060166 C27.5680746,14.792076 27.5680746,15.2078539 27.69337,15.5939133 L28.6200511,18.4474448 C28.8773692,19.2391891 28.5956648,20.1069116 27.9220971,20.5964249 L25.4955154,22.3599063 C25.1672808,22.5984949 24.9225764,22.9349302 24.797281,23.3209896 L23.8705998,26.1742407 C23.6132818,26.9665457 22.8752444,27.5025992 22.042745,27.5025992 L19.0432243,27.5025992 C18.6373458,27.5025992 18.2418385,27.6310053 17.9136039,27.869594 L15.4867419,29.6330753 C14.8134545,30.1223082 13.901349,30.1223082 13.227501,29.6330753 L10.8011996,27.869594 C10.4726847,27.6310053 10.0771774,27.5025992 9.67129886,27.5025992 L6.67205847,27.5025992 C5.83927873,27.5025992 5.10152166,26.9665457 4.84420365,26.1742407 L3.91724216,23.3209896 C3.79194679,22.9349302 3.54752271,22.5984949 3.21900779,22.3599063 L0.792426099,20.5964249 C0.118858375,20.1069116 -0.163126282,19.2391891 0.094191725,18.4474448 L1.02115322,15.5939133 C1.14672889,15.2078539 1.14672889,14.792076 1.02115322,14.4060166 L0.094191725,11.5527654 C-0.163126282,10.7607408 0.118858375,9.89301827 0.792426099,9.403505 L3.21900779,7.64030401 C3.54752271,7.40143499 3.79194679,7.06499975 3.91724216,6.67894032 L4.84420365,3.82596953 C5.10152166,3.03366455 5.83927873,2.49761108 6.67205847,2.49761108 L9.67129886,2.49761108 C10.0771774,2.49761108 10.4726847,2.3689246 10.8011996,2.13061631 L13.227501,0.36713495 C13.901349,-0.122378317 14.8134545,-0.122378317 15.4867419,0.36713495" id="Fill-9" fill="#343EF5"></path>
                <g id="check" transform="translate(9.068475, 11.571429)" stroke="#FFFFFF" stroke-linecap="round" stroke-linejoin="round">
                    <polyline id="Path" points="10.4727273 0 3.27272727 7.2 0 3.92727273"></polyline>
                </g>
            </g>
        </g>
    </g>
</svg>